<?xml version="1.0" encoding="UTF-8" standalone="no"?>
<!-- Created with Inkscape (http://www.inkscape.org/) -->

<svg
   xmlns:dc="http://purl.org/dc/elements/1.1/"
   xmlns:cc="http://creativecommons.org/ns#"
   xmlns:rdf="http://www.w3.org/1999/02/22-rdf-syntax-ns#"
   xmlns:svg="http://www.w3.org/2000/svg"
   xmlns="http://www.w3.org/2000/svg"
   xmlns:xlink="http://www.w3.org/1999/xlink"
   xmlns:sodipodi="http://sodipodi.sourceforge.net/DTD/sodipodi-0.dtd"
   xmlns:inkscape="http://www.inkscape.org/namespaces/inkscape"
   width="744.09448819"
   height="1052.3622047"
   id="svg36113"
   version="1.1"
   inkscape:version="0.48.0 r9654"
   sodipodi:docname="chip_top_cyan.svg">
  <defs
     id="defs36115">
    <linearGradient
       gradientTransform="matrix(1,0,0,1.3065409,136.2085,293.37149)"
       id="SVGID_293_-0"
       gradientUnits="userSpaceOnUse"
       x1="240.895"
       y1="181.2417"
       x2="235.142"
       y2="174.1373">
      <stop
         offset="0"
         style="stop-color:#E5E6E5"
         id="stop7139-2" />
      <stop
         offset="0.34"
         style="stop-color:#B3B6B9"
         id="stop7141-9" />
      <stop
         offset="1"
         style="stop-color:#FFFFFF"
         id="stop7143-0" />
    </linearGradient>
    <linearGradient
       gradientTransform="matrix(1,0,0,1.3065409,136.2085,293.37149)"
       id="SVGID_297_-4"
       gradientUnits="userSpaceOnUse"
       x1="234.2256"
       y1="182.66409"
       x2="233.2269"
       y2="182.5237">
      <stop
         offset="0"
         style="stop-color:#B3B6B9"
         id="stop7175-5" />
      <stop
         offset="1"
         style="stop-color:#FFFFFF"
         id="stop7177-2" />
    </linearGradient>
    <linearGradient
       gradientTransform="matrix(1,0,0,1.3065409,136.27163,294.32872)"
       id="SVGID_299_-1"
       gradientUnits="userSpaceOnUse"
       x1="239.8931"
       y1="178.5894"
       x2="238.1481"
       y2="186.1474">
      <stop
         offset="0"
         style="stop-color:#1A5877"
         id="stop7189-3" />
      <stop
         offset="1"
         style="stop-color:#000003"
         id="stop7191-7" />
    </linearGradient>
    <linearGradient
       inkscape:collect="always"
       xlink:href="#SVGID_300_-0"
       id="linearGradient35970"
       gradientUnits="userSpaceOnUse"
       gradientTransform="matrix(1,0,0,1.3065409,136.2085,294.52016)"
       x1="238.793"
       y1="182.03169"
       x2="238.793"
       y2="177.5488" />
    <linearGradient
       gradientTransform="translate(662.52115,344.20672)"
       id="SVGID_300_-0"
       gradientUnits="userSpaceOnUse"
       x1="238.793"
       y1="182.03169"
       x2="238.793"
       y2="177.5488">
      <stop
         offset="0"
         style="stop-color:#8DC6DD"
         id="stop7196-1" />
      <stop
         offset="1"
         style="stop-color:#FFFFFF"
         id="stop7198-0" />
    </linearGradient>
    <linearGradient
       gradientTransform="matrix(1,0,0,1.3065409,136.2085,293.37149)"
       id="SVGID_509_-9"
       gradientUnits="userSpaceOnUse"
       x1="240.8945"
       y1="182.5049"
       x2="235.14149"
       y2="175.4005">
      <stop
         offset="0"
         style="stop-color:#E5E6E5"
         id="stop9461-6" />
      <stop
         offset="0.34"
         style="stop-color:#B3B6B9"
         id="stop9463-0" />
      <stop
         offset="1"
         style="stop-color:#FFFFFF"
         id="stop9465-7" />
    </linearGradient>
    <linearGradient
       inkscape:collect="always"
       xlink:href="#SVGID_510_-6"
       id="linearGradient35972"
       gradientUnits="userSpaceOnUse"
       gradientTransform="matrix(1,0,0,1.3065409,136.33476,294.13728)"
       x1="233.4624"
       y1="182.2061"
       x2="244.092"
       y2="182.2061" />
    <linearGradient
       gradientTransform="translate(662.52115,344.20672)"
       id="SVGID_510_-6"
       gradientUnits="userSpaceOnUse"
       x1="233.4624"
       y1="182.2061"
       x2="244.092"
       y2="182.2061">
      <stop
         offset="0"
         style="stop-color:#9CCFE2"
         id="stop9470-6" />
      <stop
         offset="0.19"
         style="stop-color:#4496BB"
         id="stop9472-4" />
      <stop
         offset="0.48"
         style="stop-color:#4496BB"
         id="stop9474-6" />
      <stop
         offset="0.77"
         style="stop-color:#1E5C76"
         id="stop9476-2" />
      <stop
         offset="1"
         style="stop-color:#337B9B"
         id="stop9478-8" />
    </linearGradient>
    <linearGradient
       gradientTransform="translate(662.52115,344.20672)"
       id="SVGID_511_-2"
       gradientUnits="userSpaceOnUse"
       x1="241.3096"
       y1="181.3647"
       x2="241.5126"
       y2="180.0826">
      <stop
         offset="0"
         style="stop-color:#B3B6B9"
         id="stop9483-6" />
      <stop
         offset="1"
         style="stop-color:#FFFFFF"
         id="stop9485-0" />
    </linearGradient>
    <linearGradient
       gradientTransform="matrix(1,0,0,1.2926069,136.2085,295.99687)"
       id="SVGID_512_-8"
       gradientUnits="userSpaceOnUse"
       x1="237.5313"
       y1="181.64259"
       x2="235.37131"
       y2="180.54201">
      <stop
         offset="0"
         style="stop-color:#B3B6B9"
         id="stop9490-5" />
      <stop
         offset="1"
         style="stop-color:#FFFFFF"
         id="stop9492-8" />
    </linearGradient>
    <linearGradient
       gradientTransform="matrix(1,0,0,1.3065409,136.2085,293.37149)"
       id="SVGID_513_-4"
       gradientUnits="userSpaceOnUse"
       x1="234.22659"
       y1="183.9287"
       x2="233.22791"
       y2="183.78841">
      <stop
         offset="0"
         style="stop-color:#B3B6B9"
         id="stop9497-7" />
      <stop
         offset="1"
         style="stop-color:#FFFFFF"
         id="stop9499-4" />
    </linearGradient>
    <linearGradient
       gradientTransform="matrix(1,0,0,1.3065409,136.2085,293.37149)"
       id="SVGID_514_-4"
       gradientUnits="userSpaceOnUse"
       x1="244.21581"
       y1="183.8335"
       x2="243.8734"
       y2="183.71561">
      <stop
         offset="0"
         style="stop-color:#B3B6B9"
         id="stop9504-0" />
      <stop
         offset="1"
         style="stop-color:#FFFFFF"
         id="stop9506-6" />
    </linearGradient>
    <linearGradient
       gradientTransform="matrix(1,0,0,1.3065409,136.2085,293.37149)"
       id="SVGID_515_-6"
       gradientUnits="userSpaceOnUse"
       x1="238.6611"
       y1="180.82761"
       x2="238.9337"
       y2="188.63409">
      <stop
         offset="0"
         style="stop-color:#4496BB"
         id="stop9511-7" />
      <stop
         offset="1"
         style="stop-color:#1986AE"
         id="stop9513-7" />
    </linearGradient>
    <linearGradient
       gradientTransform="matrix(1,0,0,1.3065409,136.2085,293.37149)"
       id="SVGID_516_-9"
       gradientUnits="userSpaceOnUse"
       x1="238.3735"
       y1="184.61819"
       x2="235.15199"
       y2="184.61819">
      <stop
         offset="0"
         style="stop-color:#4496BB"
         id="stop9518-0" />
      <stop
         offset="1"
         style="stop-color:#1E5C76"
         id="stop9520-5" />
    </linearGradient>
    <linearGradient
       gradientTransform="matrix(1,0,0,1.3065409,136.2085,293.37149)"
       id="SVGID_517_-3"
       gradientUnits="userSpaceOnUse"
       x1="239.0649"
       y1="184.61279"
       x2="241.7738"
       y2="184.6601">
      <stop
         offset="0"
         style="stop-color:#4496BB"
         id="stop9525-1" />
      <stop
         offset="1"
         style="stop-color:#1E5C76"
         id="stop9527-1" />
    </linearGradient>
    <linearGradient
       gradientTransform="matrix(1,0,0,1.3065409,136.2085,293.37149)"
       id="SVGID_518_-2"
       gradientUnits="userSpaceOnUse"
       x1="239.209"
       y1="184.6147"
       x2="243.76151"
       y2="184.7737">
      <stop
         offset="0"
         style="stop-color:#4496BB"
         id="stop9532-0" />
      <stop
         offset="1"
         style="stop-color:#FFFFFF"
         id="stop9534-7" />
    </linearGradient>
    <linearGradient
       gradientTransform="matrix(1,0,0,1.3065409,136.2085,293.37149)"
       id="SVGID_519_-6"
       gradientUnits="userSpaceOnUse"
       x1="238.4556"
       y1="184.61571"
       x2="234.7233"
       y2="184.1575">
      <stop
         offset="0"
         style="stop-color:#4496BB"
         id="stop9539-2" />
      <stop
         offset="1"
         style="stop-color:#FFFFFF"
         id="stop9541-1" />
    </linearGradient>
    <linearGradient
       gradientTransform="matrix(1,0,0,1.3065409,136.2085,293.37149)"
       id="SVGID_520_-0"
       gradientUnits="userSpaceOnUse"
       x1="238.793"
       y1="185.02341"
       x2="238.793"
       y2="178.2388">
      <stop
         offset="0"
         style="stop-color:#4496BB"
         id="stop9548-1" />
      <stop
         offset="1"
         style="stop-color:#FFFFFF"
         id="stop9550-9" />
    </linearGradient>
    <linearGradient
       inkscape:collect="always"
       xlink:href="#SVGID_512_-8"
       id="linearGradient36342"
       gradientUnits="userSpaceOnUse"
       gradientTransform="matrix(1,0,0,0.74815838,136.2085,394.85361)"
       x1="237.5313"
       y1="181.64259"
       x2="235.37131"
       y2="180.54201" />
    <linearGradient
       inkscape:collect="always"
       xlink:href="#SVGID_511_-2"
       id="linearGradient36344"
       gradientUnits="userSpaceOnUse"
       gradientTransform="matrix(1,0,0,0.78181155,136.2085,388.71428)"
       x1="241.3096"
       y1="181.3647"
       x2="241.5126"
       y2="180.0826" />
  </defs>
  <sodipodi:namedview
     id="base"
     pagecolor="#ffffff"
     bordercolor="#666666"
     borderopacity="1.0"
     inkscape:pageopacity="0.0"
     inkscape:pageshadow="2"
     inkscape:zoom="15.839192"
     inkscape:cx="377.88104"
     inkscape:cy="517.67731"
     inkscape:document-units="px"
     inkscape:current-layer="layer1"
     showgrid="false"
     inkscape:window-width="515"
     inkscape:window-height="622"
     inkscape:window-x="501"
     inkscape:window-y="93"
     inkscape:window-maximized="0" />
  <metadata
     id="metadata36118">
    <rdf:RDF>
      <cc:Work
         rdf:about="">
        <dc:format>image/svg+xml</dc:format>
        <dc:type
           rdf:resource="http://purl.org/dc/dcmitype/StillImage" />
        <dc:title></dc:title>
      </cc:Work>
    </rdf:RDF>
  </metadata>
  <g
     inkscape:label="Layer 1"
     inkscape:groupmode="layer"
     id="layer1">
    <path
       style="fill:#ffffff;fill-rule:evenodd"
       inkscape:connector-curvature="0"
       clip-rule="evenodd"
       d="m 371.6845,527.70483 c 0.438,0.33709 0.935,0.61016 1.475,0.80222 l -0.008,0.0117 c -0.16,-0.0549 -0.317,-0.11889 -0.47,-0.18814 l -0.024,-0.0117 c -0.03,-0.013 -0.06,-0.0275 -0.089,-0.0418 l -0.022,-0.0104 c -0.028,-0.013 -0.058,-0.0287 -0.087,-0.0432 -0.01,-0.004 -0.021,-0.0104 -0.03,-0.0157 -0.025,-0.013 -0.05,-0.0261 -0.074,-0.0379 -0.014,-0.009 -0.028,-0.0157 -0.042,-0.0235 -0.021,-0.0117 -0.042,-0.0235 -0.063,-0.034 -0.017,-0.009 -0.033,-0.0197 -0.049,-0.0287 -0.019,-0.0104 -0.037,-0.0222 -0.055,-0.0327 -0.02,-0.0117 -0.038,-0.0235 -0.057,-0.034 -0.017,-0.0104 -0.033,-0.021 -0.049,-0.03 -0.02,-0.0117 -0.04,-0.0248 -0.059,-0.0366 -0.015,-0.009 -0.029,-0.0196 -0.044,-0.0287 -0.021,-0.0144 -0.043,-0.0287 -0.063,-0.0431 -0.012,-0.009 -0.024,-0.017 -0.035,-0.0249 -0.023,-0.0157 -0.045,-0.0314 -0.067,-0.047 -0.012,-0.008 -0.023,-0.017 -0.036,-0.0261 -0.021,-0.0157 -0.043,-0.0314 -0.064,-0.0496 h -0.001 l 0.013,-0.0261 z"
       id="path6356-3" />
    <path
       style="fill:#ffffff;fill-rule:evenodd"
       inkscape:connector-curvature="0"
       clip-rule="evenodd"
       d="m 371.6845,529.51831 c 0.438,0.33709 0.935,0.61016 1.475,0.80221 l -0.008,0.0117 c -0.16,-0.0549 -0.317,-0.1189 -0.47,-0.18946 l -0.024,-0.0104 c -0.03,-0.013 -0.06,-0.0274 -0.089,-0.0418 l -0.022,-0.0104 c -0.028,-0.013 -0.058,-0.0287 -0.087,-0.0432 -0.01,-0.004 -0.021,-0.0104 -0.03,-0.0157 -0.025,-0.013 -0.05,-0.0261 -0.074,-0.0392 -0.014,-0.006 -0.028,-0.0157 -0.042,-0.0235 -0.021,-0.0117 -0.042,-0.0235 -0.063,-0.0339 -0.017,-0.0104 -0.033,-0.0196 -0.049,-0.0287 -0.019,-0.0104 -0.037,-0.0223 -0.055,-0.0327 -0.02,-0.0117 -0.038,-0.0235 -0.057,-0.0339 -0.017,-0.0104 -0.033,-0.021 -0.049,-0.03 -0.02,-0.013 -0.04,-0.0248 -0.059,-0.0365 -0.015,-0.009 -0.029,-0.0197 -0.044,-0.0287 -0.021,-0.0144 -0.043,-0.0287 -0.063,-0.0432 -0.012,-0.009 -0.024,-0.017 -0.035,-0.0249 -0.023,-0.0157 -0.045,-0.0314 -0.067,-0.047 -0.012,-0.009 -0.023,-0.017 -0.036,-0.0261 -0.021,-0.0157 -0.043,-0.0314 -0.064,-0.0496 h -0.001 l 0.013,-0.0248 z"
       id="path6528-8" />
    <path
       style="fill:#636465;fill-rule:evenodd"
       inkscape:connector-curvature="0"
       clip-rule="evenodd"
       d="m 371.6695,531.35531 0.628,-1.03348 c 0.045,-0.0732 0.146,-0.0993 0.224,-0.0589 l 1.199,0.63759 c 0.078,0.0418 0.105,0.13588 0.061,0.20905 l -0.63,1.03609 c -0.541,-0.18684 -1.04,-0.45599 -1.482,-0.79047 z"
       id="path6688-6" />
    <path
       style="fill:#636465;fill-rule:evenodd"
       inkscape:connector-curvature="0"
       clip-rule="evenodd"
       d="m 376.8965,532.11441 -0.639,-1.02564 c -0.046,-0.0732 -0.02,-0.16593 0.059,-0.21035 l 1.192,-0.65589 c 0.077,-0.0431 0.178,-0.0183 0.223,0.0536 l 0.64,1.02433 c -0.439,0.341 -0.935,0.618 -1.475,0.81398 z"
       id="path6690-0" />
    <path
       style="fill:#ffffff;fill-rule:evenodd"
       inkscape:connector-curvature="0"
       clip-rule="evenodd"
       d="m 371.6845,531.3331 c 0.438,0.33708 0.935,0.61015 1.475,0.80221 l -0.008,0.0117 c -0.16,-0.0549 -0.317,-0.11889 -0.47,-0.18944 l -0.024,-0.0105 c -0.03,-0.013 -0.06,-0.0274 -0.089,-0.0418 l -0.022,-0.0104 c -0.028,-0.013 -0.058,-0.0287 -0.087,-0.0432 -0.01,-0.004 -0.021,-0.0104 -0.03,-0.0157 -0.025,-0.013 -0.05,-0.0261 -0.074,-0.0392 -0.014,-0.006 -0.028,-0.0157 -0.042,-0.0235 -0.021,-0.0117 -0.042,-0.0235 -0.063,-0.034 -0.017,-0.0104 -0.033,-0.0196 -0.049,-0.0287 -0.019,-0.0104 -0.037,-0.0222 -0.055,-0.0327 -0.02,-0.0117 -0.038,-0.0235 -0.057,-0.034 -0.017,-0.0104 -0.033,-0.021 -0.049,-0.03 -0.02,-0.013 -0.04,-0.0248 -0.059,-0.0365 -0.015,-0.0104 -0.029,-0.0197 -0.044,-0.0287 -0.021,-0.0144 -0.043,-0.0287 -0.063,-0.0432 -0.012,-0.009 -0.024,-0.017 -0.035,-0.0248 -0.023,-0.0157 -0.045,-0.0314 -0.067,-0.047 -0.012,-0.009 -0.023,-0.017 -0.036,-0.0261 -0.021,-0.017 -0.043,-0.0314 -0.064,-0.0496 l -0.001,-9.5e-4 0.013,-0.0235 z"
       id="path6700-4" />
    <path
       style="fill:#636465;fill-rule:evenodd"
       inkscape:connector-curvature="0"
       clip-rule="evenodd"
       d="m 371.6695,533.17009 0.628,-1.03347 c 0.045,-0.0732 0.146,-0.0993 0.224,-0.0589 l 1.199,0.63759 c 0.078,0.0418 0.105,0.13588 0.061,0.20904 l -0.63,1.03609 c -0.541,-0.18683 -1.04,-0.45599 -1.482,-0.79047 z"
       id="path6860-7" />
    <path
       style="fill:#636465;fill-rule:evenodd"
       inkscape:connector-curvature="0"
       clip-rule="evenodd"
       d="m 376.8965,533.92919 -0.639,-1.02564 c -0.046,-0.0732 -0.02,-0.16723 0.059,-0.21035 l 1.192,-0.65589 c 0.077,-0.0431 0.178,-0.0183 0.223,0.0536 l 0.64,1.02433 c -0.439,0.34101 -0.935,0.61669 -1.475,0.81397 z"
       id="path6862-6" />
    <path
       style="fill:#ffffff;fill-rule:evenodd"
       inkscape:connector-curvature="0"
       clip-rule="evenodd"
       d="m 371.6845,533.14788 c 0.438,0.33709 0.935,0.61015 1.475,0.80222 l -0.008,0.0117 c -0.16,-0.0549 -0.317,-0.11889 -0.47,-0.18944 l -0.024,-0.0104 c -0.03,-0.013 -0.06,-0.0275 -0.089,-0.0418 l -0.022,-0.0104 c -0.028,-0.013 -0.058,-0.0287 -0.087,-0.0431 -0.01,-0.004 -0.021,-0.0105 -0.03,-0.0157 -0.025,-0.013 -0.05,-0.0261 -0.074,-0.0392 -0.014,-0.006 -0.028,-0.0157 -0.042,-0.0235 -0.021,-0.0117 -0.042,-0.0235 -0.063,-0.0339 -0.017,-0.0104 -0.033,-0.0196 -0.049,-0.0287 -0.019,-0.0104 -0.037,-0.0222 -0.055,-0.0327 -0.02,-0.0117 -0.038,-0.0235 -0.057,-0.034 -0.017,-0.0104 -0.033,-0.021 -0.049,-0.03 -0.02,-0.013 -0.04,-0.0248 -0.059,-0.0366 -0.015,-0.0104 -0.029,-0.0197 -0.044,-0.0287 -0.021,-0.0144 -0.043,-0.0287 -0.063,-0.0432 -0.012,-0.009 -0.024,-0.017 -0.035,-0.0247 -0.023,-0.0157 -0.045,-0.0314 -0.067,-0.047 -0.012,-0.009 -0.023,-0.017 -0.036,-0.0262 -0.021,-0.017 -0.043,-0.0327 -0.064,-0.0496 l -0.001,-9.4e-4 0.013,-0.0235 z"
       id="path6872-7" />
    <path
       style="fill:#636465;fill-rule:evenodd"
       inkscape:connector-curvature="0"
       clip-rule="evenodd"
       d="m 371.6695,534.98488 0.628,-1.03348 c 0.045,-0.0732 0.146,-0.0993 0.224,-0.0589 l 1.199,0.63759 c 0.078,0.0419 0.105,0.13588 0.061,0.20905 l -0.63,1.03608 c -0.541,-0.18814 -1.04,-0.45598 -1.482,-0.79045 z"
       id="path7032-5" />
    <path
       style="fill:#636465;fill-rule:evenodd"
       inkscape:connector-curvature="0"
       clip-rule="evenodd"
       d="m 376.8965,535.74397 -0.639,-1.02564 c -0.046,-0.0732 -0.02,-0.16723 0.059,-0.21035 l 1.192,-0.65587 c 0.077,-0.0444 0.178,-0.0183 0.223,0.0536 l 0.64,1.02434 c -0.439,0.34101 -0.935,0.61537 -1.475,0.81396 z"
       id="path7034-3" />
    <path
       style="fill:#ffffff;fill-rule:evenodd"
       inkscape:connector-curvature="0"
       clip-rule="evenodd"
       d="m 371.6845,534.96006 c 0.438,0.33839 0.935,0.61146 1.475,0.80352 l -0.008,0.0117 c -0.16,-0.0549 -0.317,-0.11889 -0.47,-0.18945 l -0.024,-0.0104 c -0.03,-0.013 -0.06,-0.0274 -0.089,-0.0419 l -0.022,-0.0104 c -0.028,-0.013 -0.058,-0.0287 -0.087,-0.0432 -0.01,-0.005 -0.021,-0.0104 -0.03,-0.0157 -0.025,-0.013 -0.05,-0.0261 -0.074,-0.0392 -0.014,-0.009 -0.028,-0.0157 -0.042,-0.0235 -0.021,-0.0117 -0.042,-0.0235 -0.063,-0.0353 -0.017,-0.009 -0.033,-0.0183 -0.049,-0.0287 -0.019,-0.0104 -0.037,-0.021 -0.055,-0.0314 -0.02,-0.0117 -0.038,-0.0235 -0.057,-0.034 -0.017,-0.0104 -0.033,-0.021 -0.049,-0.03 -0.02,-0.013 -0.04,-0.0261 -0.059,-0.0366 -0.015,-0.0104 -0.029,-0.0197 -0.044,-0.0287 -0.021,-0.0144 -0.043,-0.0287 -0.063,-0.0432 -0.012,-0.009 -0.024,-0.017 -0.035,-0.0249 -0.023,-0.0157 -0.045,-0.0314 -0.067,-0.047 -0.012,-0.009 -0.023,-0.017 -0.036,-0.0261 -0.021,-0.017 -0.043,-0.0327 -0.064,-0.0496 l -0.001,-9.4e-4 0.013,-0.0249 z"
       id="path7044-3" />
    <path
       style="fill:url(#SVGID_293_-0);fill-rule:evenodd"
       inkscape:connector-curvature="0"
       clip-rule="evenodd"
       d="m 376.2795,530.14022 0.834,-0.88844 c 0.007,-0.1189 -0.031,-0.3005 -0.098,-0.52131 l -0.843,0.89889 c 0.069,0.20905 0.108,0.38152 0.106,0.50302 v 0.009 z"
       id="path7145-9" />
    <path
       style="fill:url(#SVGID_297_-4);fill-rule:evenodd"
       inkscape:connector-curvature="0"
       clip-rule="evenodd"
       d="m 369.7135,532.86435 c -0.003,-0.44683 -0.005,-0.89367 -0.008,-1.3392 0.008,-0.19075 0.028,-0.38281 0.061,-0.57096 0,-0.004 10e-4,-0.009 0.002,-0.013 l 0.007,1.35227 -0.033,0.23256 -0.023,0.3397 h -0.006 z"
       id="path7179-3" />
    <path
       style="fill:url(#SVGID_299_-1);fill-rule:evenodd"
       inkscape:connector-curvature="0"
       clip-rule="evenodd"
       d="m 369.78363,533.93265 c -0.015,-2.7359 2.34,-4.974 5.257,-4.99752 2.917,-0.0249 5.292,2.17408 5.305,4.90867 0.014,2.73459 -2.34,4.97269 -5.257,4.99752 -2.916,0.0248 -5.292,-2.17409 -5.305,-4.90867 z"
       id="path7193-8" />
    <path
       style="fill:url(#linearGradient35970);fill-rule:evenodd"
       inkscape:connector-curvature="0"
       clip-rule="evenodd"
       d="m 369.7095,534.12409 c -0.014,-2.74113 2.345,-4.98184 5.268,-5.00798 2.922,-0.0235 5.302,2.17801 5.315,4.92044 0,0.004 0,0.0104 0,0.0143 -0.022,-2.7163 -2.385,-4.89561 -5.281,-4.87209 -2.904,0.0248 -5.248,2.25247 -5.234,4.97661 0.014,2.71761 2.37,4.90214 5.265,4.88778 -0.005,0 -0.011,0 -0.017,0 -2.921,0.0222 -5.303,-2.17932 -5.316,-4.91913 z"
       id="path7200-7" />
    <path
       style="fill:#636465;fill-rule:evenodd"
       inkscape:connector-curvature="0"
       clip-rule="evenodd"
       d="m 369.7755,532.1732 1.267,-0.0104 c 0.091,-9.4e-4 0.165,0.0679 0.165,0.15157 l 0.007,1.29477 c 0,0.0849 -0.073,0.15549 -0.164,0.15549 l -1.267,0.0104 c -0.047,-0.26 -0.071,-0.52654 -0.073,-0.7996 -0.002,-0.27308 0.021,-0.54091 0.065,-0.80222 z"
       id="path7202-4" />
    <path
       style="fill:#636465;fill-rule:evenodd"
       inkscape:connector-curvature="0"
       clip-rule="evenodd"
       d="m 371.6695,536.79835 0.628,-1.03347 c 0.045,-0.0732 0.146,-0.0993 0.224,-0.0588 l 1.199,0.6376 c 0.078,0.0419 0.105,0.13588 0.061,0.20904 l -0.63,1.0361 c -0.541,-0.18815 -1.04,-0.45599 -1.482,-0.79047 z"
       id="path7204-1" />
    <path
       style="fill:#636465;fill-rule:evenodd"
       inkscape:connector-curvature="0"
       clip-rule="evenodd"
       d="m 376.8965,537.55876 -0.639,-1.02563 c -0.046,-0.0732 -0.02,-0.16724 0.059,-0.21036 l 1.192,-0.65587 c 0.077,-0.0444 0.178,-0.0183 0.223,0.0535 l 0.64,1.02434 c -0.439,0.3397 -0.935,0.61538 -1.475,0.81397 z"
       id="path7206-9" />
    <path
       style="fill:#636465;fill-rule:evenodd"
       inkscape:connector-curvature="0"
       clip-rule="evenodd"
       d="m 380.2275,533.68748 -1.268,0.0117 c -0.089,0 -0.164,-0.0679 -0.164,-0.15286 l -0.006,-1.29479 c -10e-4,-0.0849 0.073,-0.15417 0.162,-0.15547 l 1.268,-0.0104 c 0.047,0.26131 0.072,0.52653 0.073,0.80091 0.002,0.27176 -0.021,0.53961 -0.065,0.80091 z"
       id="path7208-0" />
    <path
       style="fill:#ffffff;fill-rule:evenodd"
       inkscape:connector-curvature="0"
       clip-rule="evenodd"
       d="m 369.7095,532.97542 c 0,-0.0418 0,-0.0849 0.001,-0.12804 v -9.5e-4 c 10e-4,-0.0405 0.003,-0.081 0.004,-0.1189 l 0.001,-0.0157 c 0.002,-0.034 0.005,-0.0692 0.007,-0.10323 0,-0.0104 10e-4,-0.021 0.002,-0.03 0.003,-0.0287 0.006,-0.0575 0.008,-0.0862 0.002,-0.017 0.004,-0.034 0.006,-0.0509 0.002,-0.0222 0.004,-0.0418 0.007,-0.0639 0.004,-0.0248 0.006,-0.0496 0.011,-0.0745 0.002,-0.013 0.003,-0.0274 0.005,-0.0405 0.005,-0.03 0.009,-0.0589 0.015,-0.0876 l 0.072,-9.4e-4 c -0.047,0.27176 -0.072,0.55005 -0.07,0.83357 10e-4,0.2613 0.024,0.51739 0.067,0.76824 h -0.062 c -0.006,-0.0287 -0.01,-0.0575 -0.016,-0.0862 -10e-4,-0.0144 -0.004,-0.0275 -0.006,-0.0418 -0.004,-0.0249 -0.007,-0.0496 -0.011,-0.0745 -0.002,-0.021 -0.005,-0.0419 -0.008,-0.0626 -0.002,-0.0157 -0.004,-0.0327 -0.006,-0.0496 -0.003,-0.0287 -0.006,-0.0575 -0.008,-0.0876 -10e-4,-0.009 -0.003,-0.0196 -0.004,-0.03 -0.003,-0.0352 -0.005,-0.0706 -0.007,-0.10452 l -10e-4,-0.0144 c -0.003,-0.0392 -0.004,-0.0796 -0.005,-0.11758 v -0.004 c -10e-4,-0.0432 -0.002,-0.0849 -0.002,-0.12674 z"
       id="path7214-8" />
    <path
       style="fill:#ffffff;fill-rule:evenodd"
       inkscape:connector-curvature="0"
       clip-rule="evenodd"
       d="m 371.6845,536.77484 c 0.438,0.33839 0.935,0.61146 1.475,0.80221 l -0.008,0.013 c -0.16,-0.0562 -0.317,-0.1189 -0.47,-0.18945 l -0.024,-0.0104 c -0.03,-0.013 -0.06,-0.0287 -0.089,-0.0418 l -0.022,-0.0104 c -0.028,-0.013 -0.058,-0.0287 -0.087,-0.0432 -0.01,-0.005 -0.021,-0.0104 -0.03,-0.0157 -0.025,-0.013 -0.05,-0.0261 -0.074,-0.0392 -0.014,-0.009 -0.028,-0.0157 -0.042,-0.0235 -0.021,-0.0117 -0.042,-0.0235 -0.063,-0.0352 -0.017,-0.009 -0.033,-0.0183 -0.049,-0.0287 -0.019,-0.0104 -0.037,-0.0209 -0.055,-0.0314 -0.02,-0.0117 -0.038,-0.0235 -0.057,-0.034 -0.017,-0.0104 -0.033,-0.021 -0.049,-0.03 -0.02,-0.013 -0.04,-0.0261 -0.059,-0.0366 -0.015,-0.0104 -0.029,-0.0196 -0.044,-0.03 -0.021,-0.013 -0.043,-0.0275 -0.063,-0.0418 -0.012,-0.009 -0.024,-0.017 -0.035,-0.0248 -0.023,-0.0157 -0.045,-0.0314 -0.067,-0.047 -0.012,-0.009 -0.023,-0.017 -0.036,-0.0261 -0.021,-0.017 -0.043,-0.0327 -0.064,-0.0484 l -0.001,-9.5e-4 0.013,-0.0261 z"
       id="path7216-5" />
    <path
       style="fill:#ffffff;fill-rule:evenodd"
       inkscape:connector-curvature="0"
       clip-rule="evenodd"
       d="m 380.2345,532.1732 c 0.002,0.013 0.005,0.0261 0.007,0.0405 0.003,0.0248 0.008,0.0496 0.011,0.0745 0.003,0.021 0.005,0.0419 0.008,0.0626 0.002,0.0157 0.004,0.0327 0.006,0.0509 0.004,0.0287 0.006,0.0575 0.009,0.0862 10e-4,0.0104 0.002,0.021 0.003,0.0314 0.002,0.034 0.005,0.0692 0.008,0.10321 v 0.0144 c 0.002,0.0405 0.004,0.0796 0.006,0.1189 v 0.003 c 10e-4,0.0418 0.002,0.0849 0.002,0.12805 l 0,0 0,0 0,0 0,0 v 0 l 0,0 0,0 0,0 v 9.4e-4 l 0,0 0,0 c 0,0.004 0,0.009 0,0.013 -0.002,-0.2783 -0.029,-0.55006 -0.079,-0.81528 h 0.006 c 0.004,0.0287 0.009,0.0575 0.013,0.0876 z"
       id="path7218-8" />
    <path
       style="fill:#ffffff;fill-rule:evenodd"
       inkscape:connector-curvature="0"
       clip-rule="evenodd"
       d="m 371.69563,530.13825 c 0.021,-0.0157 0.043,-0.0327 0.064,-0.0496 0.012,-0.009 0.024,-0.017 0.037,-0.0275 0.021,-0.0157 0.043,-0.0314 0.063,-0.047 0.014,-0.009 0.025,-0.017 0.038,-0.0274 0.021,-0.013 0.04,-0.0275 0.06,-0.0405 0.016,-0.0104 0.031,-0.021 0.047,-0.0314 0.019,-0.013 0.037,-0.0261 0.057,-0.0379 0.017,-0.0104 0.033,-0.0222 0.051,-0.0327 0.018,-0.0117 0.036,-0.0235 0.054,-0.0339 0.019,-0.0104 0.036,-0.0222 0.054,-0.0327 0.018,-0.009 0.033,-0.0183 0.049,-0.0287 0.021,-0.0117 0.042,-0.0248 0.063,-0.0366 0.015,-0.008 0.029,-0.0157 0.044,-0.0248 0.022,-0.0117 0.045,-0.0248 0.067,-0.0366 0.014,-0.006 0.028,-0.0144 0.042,-0.0222 0.024,-0.013 0.048,-0.0261 0.071,-0.0379 0.012,-0.005 0.023,-0.0117 0.034,-0.017 0.027,-0.0144 0.057,-0.0287 0.085,-0.0418 h 10e-4 l 0.023,-0.0117 0.003,-9.5e-4 c 0.03,-0.0144 0.062,-0.0287 0.092,-0.0431 l 0.002,0 0.024,-0.0104 c 0.072,-0.0314 0.146,-0.0626 0.221,-0.0914 l 0.003,0 c 0.041,-0.017 0.082,-0.0327 0.124,-0.047 l 0.039,0.0613 c -0.539,0.1973 -1.035,0.47559 -1.472,0.8179 l -0.04,-0.0679 0,0 z"
       id="path7222-3" />
    <path
       style="fill:url(#SVGID_509_-9);fill-rule:evenodd"
       inkscape:connector-curvature="0"
       clip-rule="evenodd"
       d="m 376.2795,531.79039 0.834,-0.88845 c 0.007,-0.1189 -0.031,-0.3005 -0.098,-0.52131 l -0.843,0.89889 c 0.069,0.20905 0.108,0.38283 0.106,0.50303 v 0.009 z"
       id="path9467-7" />
    <path
       style="fill:url(#linearGradient35972);fill-rule:evenodd"
       inkscape:connector-curvature="0"
       clip-rule="evenodd"
       d="m 369.84176,535.19277 c -0.002,-0.42201 -0.004,-0.84533 -0.006,-1.26865 0.03,-0.8375 0.338,-1.67368 0.748,-2.30997 0.895,-1.39277 2.353,-2.14534 3.708,-2.34915 1.673,-0.25217 3.596,0.24563 4.897,1.69719 0.591,0.6585 1.092,1.60312 1.194,2.62354 0.007,0.0823 0.014,0.16593 0.021,0.25085 0.003,0.42201 0.005,0.84533 0.007,1.26865 l -10.569,0.0876 z"
       id="path9480-1" />
    <path
       style="fill:url(#linearGradient36344);fill-rule:evenodd"
       inkscape:connector-curvature="0"
       clip-rule="evenodd"
       d="m 376.8445,529.53263 c 0.521,0.10711 1.024,0.26346 1.482,0.47064 l 0.007,0.7654 c -0.48,-0.21499 -0.949,-0.35964 -1.483,-0.47222 l -0.006,-0.76382 z"
       id="path9487-3" />
    <path
       style="fill:url(#linearGradient36342);fill-rule:evenodd"
       inkscape:connector-curvature="0"
       clip-rule="evenodd"
       d="m 371.6255,530.09372 c 0.458,-0.20276 0.962,-0.35763 1.475,-0.46462 l 0.006,0.73021 c -0.531,0.11222 -0.997,0.25587 -1.474,0.46685 l -0.007,-0.73244 z"
       id="path9494-8" />
    <path
       style="fill:url(#SVGID_513_-4);fill-rule:evenodd"
       inkscape:connector-curvature="0"
       clip-rule="evenodd"
       d="m 369.7135,534.51583 c -0.003,-0.44684 -0.005,-0.89367 -0.008,-1.34051 0.008,-0.19076 0.028,-0.38152 0.061,-0.57096 0,-0.005 10e-4,-0.009 0.002,-0.0144 l 0.007,1.35228 -0.033,0.23255 -0.023,0.33971 h -0.006 z"
       id="path9501-0" />
    <path
       style="fill:url(#SVGID_514_-4);fill-rule:evenodd"
       inkscape:connector-curvature="0"
       clip-rule="evenodd"
       d="m 380.2205,533.87301 -0.006,-1.37056 c 0.005,0.0287 0.012,0.0666 0.02,0.10844 0.01,0.0719 0.019,0.14373 0.026,0.21689 0.007,0.0876 0.015,0.17769 0.022,0.26652 0.002,0.45338 0.004,0.90544 0.006,1.35751 h -0.009 c -0.015,-0.20251 -0.036,-0.45599 -0.059,-0.5788 z"
       id="path9508-9" />
    <path
       style="fill:url(#SVGID_515_-6);fill-rule:evenodd"
       inkscape:connector-curvature="0"
       clip-rule="evenodd"
       d="m 369.7205,534.62688 c -0.015,-2.7372 2.34,-4.974 5.257,-4.99752 2.917,-0.0235 5.292,2.17409 5.305,4.90867 0.014,2.7359 -2.34,4.97271 -5.257,4.99753 -2.916,0.0235 -5.292,-2.17408 -5.305,-4.90868 z"
       id="path9515-7" />
    <path
       style="fill:url(#SVGID_516_-9)"
       inkscape:connector-curvature="0"
       d="m 374.6895,537.56138 c 0.061,0.005 0.105,0.0562 0.1,0.11235 -0.005,0.0575 -0.06,0.0993 -0.12,0.0941 -0.865,-0.0745 -1.637,-0.45337 -2.191,-1.02172 -0.549,-0.56311 -0.885,-1.31045 -0.889,-2.13619 -0.004,-0.83095 0.331,-1.59137 0.883,-2.16494 0.557,-0.5788 1.335,-0.96814 2.209,-1.04784 0.061,-0.005 0.114,0.0352 0.12,0.0928 0.005,0.0562 -0.04,0.10715 -0.101,0.11237 -0.817,0.0745 -1.544,0.43899 -2.064,0.9799 -0.516,0.53568 -0.829,1.24775 -0.825,2.02514 0.004,0.77086 0.318,1.47117 0.831,1.9977 0.517,0.53306 1.238,0.88714 2.047,0.95639 z"
       id="path9522-9" />
    <path
       style="fill:url(#SVGID_517_-3)"
       inkscape:connector-curvature="0"
       d="m 375.3545,532.08305 c -0.051,-0.005 -0.089,-0.047 -0.084,-0.0954 0.005,-0.047 0.051,-0.0823 0.102,-0.0784 0.724,0.0627 1.37,0.3802 1.834,0.85579 0.459,0.47165 0.741,1.0988 0.744,1.78865 0.003,0.69638 -0.277,1.33266 -0.739,1.81347 -0.466,0.48473 -1.117,0.81006 -1.85,0.878 -0.051,0.004 -0.096,-0.0314 -0.101,-0.0784 -0.004,-0.0483 0.033,-0.0902 0.084,-0.0954 0.685,-0.0614 1.293,-0.36583 1.729,-0.81921 0.432,-0.44944 0.693,-1.04522 0.69,-1.69589 -0.004,-0.64543 -0.267,-1.23207 -0.696,-1.67237 -0.433,-0.44553 -1.036,-0.74211 -1.713,-0.8009 z"
       id="path9529-9" />
    <path
       style="fill:url(#SVGID_518_-2)"
       inkscape:connector-curvature="0"
       d="m 375.4165,537.55615 c -0.061,0.005 -0.104,0.0575 -0.099,0.11366 0.006,0.0575 0.061,0.0979 0.121,0.0928 0.865,-0.0888 1.632,-0.48081 2.181,-1.05829 0.543,-0.57228 0.873,-1.32745 0.868,-2.15057 -0.004,-0.83096 -0.346,-1.58614 -0.904,-2.15057 -0.563,-0.56964 -1.344,-0.94463 -2.218,-1.01126 -0.062,-0.003 -0.114,0.0392 -0.12,0.0954 -0.005,0.0575 0.041,0.10843 0.102,0.11106 0.818,0.0613 1.548,0.41286 2.075,0.94594 0.52,0.52783 0.84,1.23337 0.844,2.01076 0.004,0.77216 -0.304,1.47638 -0.812,2.01207 -0.514,0.5383 -1.231,0.90543 -2.038,0.98906 z"
       id="path9536-3" />
    <path
       style="fill:url(#SVGID_519_-6)"
       inkscape:connector-curvature="0"
       d="m 374.6975,532.08828 c 0.052,-0.005 0.088,-0.0484 0.083,-0.0967 -0.005,-0.047 -0.051,-0.0809 -0.102,-0.0771 -0.724,0.0758 -1.366,0.40373 -1.826,0.88584 -0.455,0.47949 -0.73,1.11056 -0.727,1.80041 0.004,0.69639 0.29,1.32875 0.757,1.80041 0.471,0.4782 1.126,0.79177 1.858,0.84664 0.051,0.004 0.096,-0.0314 0.099,-0.0796 0.005,-0.0484 -0.033,-0.0902 -0.084,-0.0928 -0.685,-0.0522 -1.297,-0.34623 -1.737,-0.79177 -0.436,-0.4403 -0.703,-1.03217 -0.707,-1.68412 -0.003,-0.64544 0.254,-1.2373 0.68,-1.68414 0.429,-0.44945 1.029,-0.75649 1.706,-0.82704 z"
       id="path9543-2" />
    <path
       style="fill:#e5e6e5"
       inkscape:connector-curvature="0"
       d="m 372.2095,533.67964 c -0.043,0.11367 -0.226,0.0549 -0.184,-0.0575 0.127,-0.34362 0.322,-0.66241 0.571,-0.9394 0.083,-0.0914 0.23,0.0261 0.148,0.11759 -0.233,0.2587 -0.415,0.5579 -0.535,0.8793 l 0,0 z m 0.862,-1.18895 c -0.097,0.0796 -0.225,-0.0589 -0.128,-0.13718 0.292,-0.2378 0.629,-0.42463 0.994,-0.54876 0.12,-0.0418 0.187,0.12936 0.065,0.17116 -0.342,0.11628 -0.659,0.29136 -0.931,0.51478 l 0,0 z m 1.377,-0.63105 c -0.126,0.0235 -0.162,-0.15549 -0.036,-0.17769 0.382,-0.0692 0.768,-0.0732 1.15,-0.0105 0.126,0.021 0.092,0.19991 -0.034,0.179 -0.357,-0.0589 -0.725,-0.0549 -1.08,0.009 l 0,0 z m 1.526,0.10057 c -0.121,-0.0392 -0.057,-0.21166 0.063,-0.17378 0.365,0.1189 0.705,0.3005 0.999,0.53307 0.098,0.0771 -0.028,0.21689 -0.125,0.13849 -0.276,-0.21818 -0.593,-0.38803 -0.937,-0.49778 l 0,0 z m 1.265,0.80091 c -0.083,-0.0889 0.063,-0.21035 0.147,-0.1189 0.252,0.27175 0.449,0.58925 0.58,0.93026 0.044,0.11236 -0.14,0.17508 -0.183,0.0613 -0.122,-0.3201 -0.308,-0.61668 -0.544,-0.87277 l 0,0 z m 0.666,1.28955 c -0.023,-0.1189 0.167,-0.15287 0.191,-0.034 0.072,0.35799 0.073,0.7186 0.005,1.0779 -0.022,0.11759 -0.214,0.0876 -0.19,-0.0314 0.063,-0.33447 0.062,-0.67939 -0.006,-1.01257 l 0,0 z m -0.113,1.43197 c 0.042,-0.11367 0.227,-0.0536 0.184,0.0589 -0.127,0.34362 -0.322,0.66242 -0.572,0.9394 -0.082,0.0914 -0.229,-0.0261 -0.147,-0.11628 0.234,-0.26 0.416,-0.5592 0.535,-0.88191 l 0,0 z m -0.86,1.19026 c 0.097,-0.0796 0.224,0.0589 0.127,0.13589 -0.292,0.23778 -0.63,0.42461 -0.994,0.54873 -0.12,0.0418 -0.186,-0.13065 -0.065,-0.17115 0.341,-0.11498 0.658,-0.29136 0.932,-0.51347 l 0,0 z m -1.377,0.62975 c 0.125,-0.0235 0.161,0.15678 0.035,0.17769 -0.383,0.0706 -0.768,0.0745 -1.15,0.0105 -0.126,-0.021 -0.092,-0.1999 0.034,-0.179 0.357,0.0589 0.724,0.0562 1.081,-0.009 l 0,0 z m -1.526,-0.0979 c 0.12,0.0392 0.057,0.21167 -0.064,0.17248 -0.366,-0.11891 -0.705,-0.2992 -0.999,-0.53307 -0.097,-0.0771 0.027,-0.21558 0.125,-0.1385 0.276,0.21819 0.594,0.38804 0.938,0.49909 l 0,0 z m -1.266,-0.80351 c 0.084,0.0914 -0.063,0.21035 -0.147,0.12019 -0.251,-0.27175 -0.45,-0.58793 -0.58,-0.92894 -0.043,-0.11237 0.139,-0.17508 0.183,-0.0615 0.122,0.31879 0.308,0.61406 0.544,0.87015 l 0,0 z m -0.666,-1.28955 c 0.023,0.11758 -0.167,0.15285 -0.19,0.0339 -0.072,-0.35669 -0.075,-0.71991 -0.005,-1.0779 0.021,-0.11889 0.212,-0.0876 0.19,0.03 -0.064,0.33578 -0.062,0.68202 0.005,1.01387 z"
       id="path9545-4" />
    <path
       style="fill:url(#SVGID_520_-0);fill-rule:evenodd"
       inkscape:connector-curvature="0"
       clip-rule="evenodd"
       d="m 369.7095,534.62688 c -0.014,-2.74112 2.345,-4.98314 5.268,-5.00796 2.922,-0.0249 5.302,2.17799 5.315,4.91911 0,0.004 0,0.0105 0,0.0144 -0.022,-2.7163 -2.385,-4.89561 -5.281,-4.87079 -2.904,0.0248 -5.248,2.25249 -5.234,4.97532 0.014,2.71759 2.37,4.90214 5.265,4.88776 -0.005,0 -0.011,0 -0.017,0 -2.921,0.0248 -5.303,-2.178 -5.316,-4.91782 z"
       id="path9552-3" />
    <path
       style="fill:#e5e6e5;fill-rule:evenodd"
       inkscape:connector-curvature="0"
       clip-rule="evenodd"
       d="m 369.7755,533.82466 1.267,-0.0104 c 0.091,-9.4e-4 0.165,0.0679 0.165,0.15156 l 0.007,1.29347 c 0,0.0849 -0.073,0.15548 -0.164,0.15548 l -1.267,0.0104 c -0.047,-0.25868 -0.071,-0.52653 -0.073,-0.79829 -0.002,-0.27438 0.021,-0.5409 0.065,-0.80222 z"
       id="path9554-7" />
    <path
       style="fill:#e5e6e5;fill-rule:evenodd"
       inkscape:connector-curvature="0"
       clip-rule="evenodd"
       d="m 371.6695,538.45112 0.628,-1.03347 c 0.045,-0.0745 0.146,-0.10057 0.224,-0.0589 l 1.199,0.6376 c 0.078,0.0418 0.105,0.13589 0.061,0.20904 l -0.63,1.0361 c -0.541,-0.18946 -1.04,-0.45729 -1.482,-0.79046 z"
       id="path9556-1" />
    <path
       style="fill:#e5e6e5;fill-rule:evenodd"
       inkscape:connector-curvature="0"
       clip-rule="evenodd"
       d="m 376.8965,539.20891 -0.639,-1.02562 c -0.046,-0.0719 -0.02,-0.16725 0.059,-0.21035 l 1.192,-0.65719 c 0.077,-0.0432 0.178,-0.0183 0.223,0.0549 l 0.64,1.02302 c -0.439,0.34232 -0.935,0.618 -1.475,0.81528 z"
       id="path9558-2" />
    <path
       style="fill:#e5e6e5;fill-rule:evenodd"
       inkscape:connector-curvature="0"
       clip-rule="evenodd"
       d="m 380.2275,535.33894 -1.268,0.0117 c -0.089,0 -0.164,-0.0679 -0.164,-0.15288 l -0.006,-1.29347 c -10e-4,-0.0849 0.073,-0.15417 0.162,-0.15548 l 1.268,-0.0104 c 0.047,0.2613 0.072,0.52784 0.073,0.80091 0.002,0.27045 -0.021,0.53829 -0.065,0.79959 z"
       id="path9560-2" />
    <path
       style="fill:#e5e6e5;fill-rule:evenodd"
       inkscape:connector-curvature="0"
       clip-rule="evenodd"
       d="m 378.3335,530.71248 -0.629,1.0348 c -0.045,0.0732 -0.145,0.10057 -0.223,0.0575 l -1.198,-0.63758 c -0.078,-0.0419 -0.105,-0.13588 -0.062,-0.20906 l 0.629,-1.03477 c 0.542,0.18813 1.041,0.45467 1.483,0.78915 z"
       id="path9562-0" />
    <path
       style="fill:#e5e6e5;fill-rule:evenodd"
       inkscape:connector-curvature="0"
       clip-rule="evenodd"
       d="m 373.1065,529.95469 0.64,1.02433 c 0.045,0.0719 0.019,0.16724 -0.06,0.21035 l -1.191,0.6585 c -0.078,0.0419 -0.179,0.017 -0.224,-0.0549 l -0.64,-1.02302 c 0.438,-0.34232 0.936,-0.618 1.475,-0.81529 z"
       id="path9564-2" />
    <path
       style="fill:#ffffff;fill-rule:evenodd"
       inkscape:connector-curvature="0"
       clip-rule="evenodd"
       d="m 369.7095,534.62688 c 0,-0.0432 0,-0.0849 0.001,-0.12803 v -0.003 c 10e-4,-0.0405 0.003,-0.081 0.004,-0.1189 l 0.001,-0.0144 c 0.002,-0.0339 0.005,-0.0692 0.007,-0.1032 0,-0.0104 10e-4,-0.021 0.002,-0.0314 0.003,-0.0287 0.006,-0.0575 0.008,-0.0862 0.002,-0.017 0.004,-0.034 0.006,-0.0522 0.002,-0.021 0.004,-0.0419 0.007,-0.0626 0.004,-0.0248 0.006,-0.0496 0.011,-0.0745 0.002,-0.013 0.003,-0.0262 0.005,-0.0405 0.005,-0.03 0.009,-0.0589 0.015,-0.0876 l 0.072,-9.5e-4 c -0.047,0.27176 -0.072,0.55006 -0.07,0.83357 10e-4,0.26262 0.024,0.51739 0.067,0.76824 h -0.062 c -0.006,-0.0287 -0.01,-0.0575 -0.016,-0.0862 -10e-4,-0.013 -0.004,-0.0274 -0.006,-0.0405 -0.004,-0.0248 -0.007,-0.0496 -0.011,-0.0745 -0.002,-0.021 -0.005,-0.0418 -0.008,-0.0626 -0.002,-0.017 -0.004,-0.034 -0.006,-0.0496 -0.003,-0.0287 -0.006,-0.0575 -0.008,-0.0876 -10e-4,-0.009 -0.003,-0.0196 -0.004,-0.0287 -0.003,-0.0352 -0.005,-0.0706 -0.007,-0.10452 l -10e-4,-0.0157 c -0.003,-0.0392 -0.004,-0.0796 -0.005,-0.1176 v -0.003 c -10e-4,-0.0444 -0.002,-0.0862 -0.002,-0.12804 z"
       id="path9566-1" />
    <path
       style="fill:#ffffff;fill-rule:evenodd"
       inkscape:connector-curvature="0"
       clip-rule="evenodd"
       d="m 371.6845,538.4263 c 0.438,0.3384 0.935,0.61016 1.475,0.80091 l -0.008,0.013 c -0.16,-0.0562 -0.317,-0.1176 -0.47,-0.18816 l -0.024,-0.0104 c -0.03,-0.0144 -0.06,-0.0287 -0.089,-0.0432 l -0.022,-0.0104 c -0.028,-0.0144 -0.058,-0.0287 -0.087,-0.0444 -0.01,-0.005 -0.021,-0.0104 -0.03,-0.0157 -0.025,-0.013 -0.05,-0.0248 -0.074,-0.0392 -0.014,-0.009 -0.028,-0.0144 -0.042,-0.0235 -0.021,-0.0117 -0.042,-0.0235 -0.063,-0.0352 -0.017,-0.009 -0.033,-0.0183 -0.049,-0.0287 -0.019,-0.0104 -0.037,-0.021 -0.055,-0.03 -0.02,-0.0117 -0.038,-0.0235 -0.057,-0.0339 -0.017,-0.0104 -0.033,-0.021 -0.049,-0.0314 -0.02,-0.013 -0.04,-0.0261 -0.059,-0.0366 -0.015,-0.0104 -0.029,-0.0196 -0.044,-0.0287 -0.021,-0.0144 -0.043,-0.0274 -0.063,-0.0432 -0.012,-0.009 -0.024,-0.0157 -0.035,-0.0248 -0.023,-0.0157 -0.045,-0.0314 -0.067,-0.047 -0.012,-0.009 -0.023,-0.017 -0.036,-0.0261 -0.021,-0.0157 -0.043,-0.0314 -0.064,-0.0484 l -0.001,0 0.013,-0.0248 z"
       id="path9568-7" />
    <path
       style="fill:#ffffff;fill-rule:evenodd"
       inkscape:connector-curvature="0"
       clip-rule="evenodd"
       d="m 380.2345,533.82466 c 0.002,0.0144 0.005,0.0275 0.007,0.0405 0.003,0.0248 0.008,0.0496 0.011,0.0745 0.003,0.0209 0.005,0.0432 0.008,0.0626 0.002,0.0157 0.004,0.0327 0.006,0.0509 0.004,0.0287 0.006,0.0575 0.009,0.0862 10e-4,0.0104 0.002,0.021 0.003,0.0314 0.002,0.034 0.005,0.0692 0.008,0.10322 v 0.0144 c 0.002,0.0405 0.004,0.0796 0.006,0.1202 v 9.4e-4 c 10e-4,0.0432 0.002,0.0849 0.002,0.12804 l 0,0 0,0 0,0 0,0 v 9.5e-4 l 0,0 0,0 0,0 v 9.4e-4 l 0,0 0,0 c 0,0.004 0,0.009 0,0.0117 -0.002,-0.27699 -0.029,-0.55005 -0.079,-0.81527 h 0.006 c 0.004,0.0287 0.009,0.0575 0.013,0.0876 z"
       id="path9570-5" />
    <path
       style="fill:#ffffff;fill-rule:evenodd"
       inkscape:connector-curvature="0"
       clip-rule="evenodd"
       d="m 376.8505,529.92334 0.002,9.5e-4 c 0.041,0.013 0.081,0.0287 0.121,0.0432 l 0.008,0.003 c 0.039,0.0144 0.079,0.0287 0.117,0.0457 l 0.005,9.4e-4 c 0.072,0.0287 0.144,0.0602 0.215,0.0914 l 0.023,0.0104 c 0.029,0.0144 0.06,0.0274 0.089,0.0431 l 0.03,0.0144 c 0.026,0.013 0.053,0.0261 0.078,0.0379 0.013,0.006 0.025,0.013 0.038,0.0196 0.023,0.013 0.047,0.0261 0.07,0.0379 0.015,0.009 0.03,0.0157 0.046,0.0249 0.02,0.0117 0.041,0.0235 0.062,0.034 0.017,0.0104 0.033,0.0196 0.05,0.0287 0.018,0.0104 0.035,0.0209 0.053,0.0314 0.02,0.0117 0.039,0.0222 0.057,0.034 0.017,0.009 0.033,0.0197 0.049,0.03 0.021,0.013 0.039,0.0248 0.06,0.0379 0.015,0.0104 0.029,0.0196 0.044,0.0287 0.021,0.0144 0.041,0.0275 0.063,0.0432 0.012,0.009 0.023,0.0157 0.036,0.0248 0.021,0.0157 0.044,0.03 0.065,0.047 0.013,0.009 0.025,0.017 0.036,0.0274 0.022,0.0157 0.043,0.0314 0.064,0.0484 l 0.002,9.5e-4 -0.02,0.0327 c -0.443,-0.33055 -0.945,-0.59709 -1.489,-0.77738 l 0.026,-0.0457 z"
       id="path9572-1" />
    <path
       style="fill:#ffffff;fill-rule:evenodd"
       inkscape:connector-curvature="0"
       clip-rule="evenodd"
       d="m 371.6325,530.76867 c 0.021,-0.017 0.043,-0.034 0.064,-0.0496 0.012,-0.009 0.024,-0.017 0.037,-0.0274 0.021,-0.0144 0.043,-0.0314 0.063,-0.047 0.014,-0.009 0.025,-0.017 0.038,-0.0262 0.021,-0.0144 0.04,-0.0274 0.06,-0.0418 0.016,-0.0104 0.031,-0.021 0.047,-0.0314 0.019,-0.0117 0.037,-0.0248 0.057,-0.0379 0.017,-0.0104 0.033,-0.0223 0.051,-0.0314 0.018,-0.0117 0.036,-0.0235 0.054,-0.034 0.019,-0.0104 0.036,-0.0222 0.054,-0.0339 0.018,-0.009 0.033,-0.0183 0.049,-0.0287 0.021,-0.0117 0.042,-0.0235 0.063,-0.0366 0.015,-0.009 0.029,-0.0157 0.044,-0.0261 0.022,-0.0117 0.045,-0.0248 0.067,-0.0366 0.014,-0.006 0.028,-0.0157 0.042,-0.0222 0.024,-0.0117 0.048,-0.0248 0.071,-0.0379 0.012,-0.005 0.023,-0.0117 0.034,-0.0157 0.027,-0.0157 0.057,-0.0287 0.085,-0.0432 h 10e-4 l 0.023,-0.0117 0.003,-9.4e-4 c 0.03,-0.0144 0.062,-0.0287 0.092,-0.0418 l 0.002,-9.4e-4 0.024,-0.0104 c 0.072,-0.0327 0.146,-0.0626 0.221,-0.0914 l 0.003,-9.5e-4 c 0.041,-0.0157 0.082,-0.0314 0.124,-0.047 l 0.039,0.0614 c -0.539,0.19729 -1.035,0.47558 -1.472,0.81789 l -0.04,-0.0653 0,0 z"
       id="path9574-7" />
  </g>
</svg>
