<?xml version="1.0" encoding="UTF-8" standalone="no"?>
<!-- Created with Inkscape (http://www.inkscape.org/) -->

<svg
   xmlns:dc="http://purl.org/dc/elements/1.1/"
   xmlns:cc="http://creativecommons.org/ns#"
   xmlns:rdf="http://www.w3.org/1999/02/22-rdf-syntax-ns#"
   xmlns:svg="http://www.w3.org/2000/svg"
   xmlns="http://www.w3.org/2000/svg"
   xmlns:xlink="http://www.w3.org/1999/xlink"
   xmlns:sodipodi="http://sodipodi.sourceforge.net/DTD/sodipodi-0.dtd"
   xmlns:inkscape="http://www.inkscape.org/namespaces/inkscape"
   width="744.09448819"
   height="1052.3622047"
   id="svg22737"
   version="1.1"
   inkscape:version="0.48.0 r9654"
   sodipodi:docname="New document 2">
  <defs
     id="defs22739">
    <linearGradient
       inkscape:collect="always"
       xlink:href="#linearGradient2580"
       id="linearGradient1873"
       gradientUnits="userSpaceOnUse"
       gradientTransform="translate(159.1875,-14.48900)"
       x1="-21.763636"
       y1="46.290909"
       x2="-101.90910"
       y2="98.109093" />
    <linearGradient
       inkscape:collect="always"
       xlink:href="#linearGradient3857"
       id="linearGradient1871"
       gradientUnits="userSpaceOnUse"
       gradientTransform="translate(2.187500,-5.488700)"
       x1="53.127300"
       y1="122.47619"
       x2="65.800056"
       y2="113.28660" />
    <linearGradient
       inkscape:collect="always"
       xlink:href="#linearGradient6214"
       id="linearGradient1869"
       gradientUnits="userSpaceOnUse"
       gradientTransform="matrix(0.144857,0.000000,0.000000,0.144857,12.63155,49.82650)"
       x1="294.24606"
       y1="346.32654"
       x2="312.09238"
       y2="322.13895" />
    <linearGradient
       inkscape:collect="always"
       xlink:href="#linearGradient5407"
       id="linearGradient1867"
       gradientUnits="userSpaceOnUse"
       x1="653.00000"
       y1="210.36218"
       x2="708.00000"
       y2="160.36218" />
    <linearGradient
       inkscape:collect="always"
       xlink:href="#linearGradient5417"
       id="linearGradient1865"
       gradientUnits="userSpaceOnUse"
       x1="632.00000"
       y1="146.36218"
       x2="698.00000"
       y2="85.362183" />
    <linearGradient
       inkscape:collect="always"
       xlink:href="#linearGradient6214"
       id="linearGradient1863"
       gradientUnits="userSpaceOnUse"
       gradientTransform="matrix(0.144857,0.000000,0.000000,0.144857,15.23385,50.47700)"
       x1="298.98572"
       y1="540.53918"
       x2="449.32318"
       y2="415.53949" />
    <linearGradient
       inkscape:collect="always"
       xlink:href="#linearGradient3857"
       id="linearGradient1861"
       gradientUnits="userSpaceOnUse"
       gradientTransform="matrix(0.186825,0.000000,0.000000,0.144857,-10.16135,37.83660)"
       x1="356.44232"
       y1="437.49887"
       x2="484.79608"
       y2="256.17966" />
    <linearGradient
       inkscape:collect="always"
       xlink:href="#linearGradient5407"
       id="linearGradient1826"
       gradientUnits="userSpaceOnUse"
       x1="653.00000"
       y1="210.36218"
       x2="708.00000"
       y2="160.36218" />
    <linearGradient
       inkscape:collect="always"
       xlink:href="#linearGradient5417"
       id="linearGradient1824"
       gradientUnits="userSpaceOnUse"
       x1="632.00000"
       y1="146.36218"
       x2="698.00000"
       y2="85.362183" />
    <linearGradient
       inkscape:collect="always"
       xlink:href="#linearGradient2580"
       id="linearGradient4462"
       gradientUnits="userSpaceOnUse"
       gradientTransform="translate(159.1875,-14.48900)"
       x1="-21.763636"
       y1="46.290909"
       x2="-101.90910"
       y2="98.109093" />
    <linearGradient
       inkscape:collect="always"
       xlink:href="#linearGradient3857"
       id="linearGradient4466"
       gradientUnits="userSpaceOnUse"
       gradientTransform="translate(2.187500,-5.488700)"
       x1="53.127300"
       y1="122.47619"
       x2="65.800056"
       y2="113.28660" />
    <linearGradient
       inkscape:collect="always"
       xlink:href="#linearGradient6214"
       id="linearGradient4472"
       gradientUnits="userSpaceOnUse"
       gradientTransform="matrix(0.144857,0.000000,0.000000,0.144857,12.63155,49.82650)"
       x1="294.24606"
       y1="346.32654"
       x2="312.09238"
       y2="322.13895" />
    <linearGradient
       inkscape:collect="always"
       xlink:href="#linearGradient6214"
       id="linearGradient4487"
       gradientUnits="userSpaceOnUse"
       gradientTransform="matrix(0.144857,0.000000,0.000000,0.144857,15.23385,50.47700)"
       x1="298.98572"
       y1="540.53918"
       x2="449.32318"
       y2="415.53949" />
    <linearGradient
       inkscape:collect="always"
       xlink:href="#linearGradient3857"
       id="linearGradient4490"
       gradientUnits="userSpaceOnUse"
       gradientTransform="matrix(0.186825,0.000000,0.000000,0.144857,-10.16135,37.83660)"
       x1="356.44232"
       y1="437.49887"
       x2="484.79608"
       y2="256.17966" />
    <linearGradient
       inkscape:collect="always"
       xlink:href="#linearGradient2060"
       id="linearGradient39565"
       gradientUnits="userSpaceOnUse"
       gradientTransform="translate(0.000000,-1.000000)"
       x1="2.0000000"
       y1="63.099518"
       x2="109.00000"
       y2="128.69501" />
    <linearGradient
       y2="98.109093"
       x2="-101.90910"
       y1="46.290909"
       x1="-21.763636"
       gradientTransform="translate(178.4375,157.2110)"
       gradientUnits="userSpaceOnUse"
       id="linearGradient34425"
       xlink:href="#linearGradient2580"
       inkscape:collect="always" />
    <linearGradient
       y2="113.28660"
       x2="65.800056"
       y1="122.47619"
       x1="53.127300"
       gradientTransform="translate(21.43750,166.2081)"
       gradientUnits="userSpaceOnUse"
       id="linearGradient34423"
       xlink:href="#linearGradient3857"
       inkscape:collect="always" />
    <linearGradient
       y2="322.13895"
       x2="312.09238"
       y1="346.32654"
       x1="294.24606"
       gradientTransform="matrix(0.144857,0.000000,0.000000,0.144857,31.88155,221.5233)"
       gradientUnits="userSpaceOnUse"
       id="linearGradient34421"
       xlink:href="#linearGradient6214"
       inkscape:collect="always" />
    <linearGradient
       y2="160.36218"
       x2="708.00000"
       y1="210.36218"
       x1="653.00000"
       gradientUnits="userSpaceOnUse"
       id="linearGradient34419"
       xlink:href="#linearGradient5407"
       inkscape:collect="always" />
    <linearGradient
       y2="85.362183"
       x2="698.00000"
       y1="146.36218"
       x1="632.00000"
       gradientUnits="userSpaceOnUse"
       id="linearGradient34417"
       xlink:href="#linearGradient5417"
       inkscape:collect="always" />
    <linearGradient
       y2="415.53949"
       x2="449.32318"
       y1="540.53918"
       x1="298.98572"
       gradientTransform="matrix(0.144857,0.000000,0.000000,0.144857,34.48385,222.1738)"
       gradientUnits="userSpaceOnUse"
       id="linearGradient34415"
       xlink:href="#linearGradient3196"
       inkscape:collect="always" />
    <linearGradient
       y2="256.17966"
       x2="484.79608"
       y1="437.49887"
       x1="356.44232"
       gradientTransform="matrix(0.186825,0.000000,0.000000,0.144857,9.088650,209.5334)"
       gradientUnits="userSpaceOnUse"
       id="linearGradient34413"
       xlink:href="#linearGradient3857"
       inkscape:collect="always" />
    <linearGradient
       id="linearGradient3196">
      <stop
         style="stop-color:#008200;stop-opacity:1.0000000;"
         offset="0.0000000"
         id="stop3198" />
      <stop
         style="stop-color:#00d000;stop-opacity:1.0000000;"
         offset="1.0000000"
         id="stop3200" />
    </linearGradient>
    <linearGradient
       inkscape:collect="always"
       id="linearGradient2580">
      <stop
         style="stop-color:#ffffff;stop-opacity:1;"
         offset="0"
         id="stop2582" />
      <stop
         style="stop-color:#ffffff;stop-opacity:0;"
         offset="1"
         id="stop2584" />
    </linearGradient>
    <linearGradient
       id="linearGradient3857">
      <stop
         style="stop-color:#ffd8c1;stop-opacity:1.0000000;"
         offset="0.0000000"
         id="stop3859" />
      <stop
         style="stop-color:#ffeded;stop-opacity:1.0000000;"
         offset="1.0000000"
         id="stop3861" />
    </linearGradient>
    <linearGradient
       id="linearGradient5407">
      <stop
         style="stop-color:#f0eb00;stop-opacity:1.0000000;"
         offset="0.0000000"
         id="stop5409" />
      <stop
         style="stop-color:#ffff00;stop-opacity:1.0000000;"
         offset="1.0000000"
         id="stop5411" />
    </linearGradient>
    <linearGradient
       id="linearGradient5417">
      <stop
         id="stop5419"
         offset="0.0000000"
         style="stop-color:#f0a700;stop-opacity:1.0000000;" />
      <stop
         id="stop5421"
         offset="1.0000000"
         style="stop-color:#ffed00;stop-opacity:1.0000000;" />
    </linearGradient>
    <linearGradient
       id="linearGradient6214">
      <stop
         style="stop-color:#c10000;stop-opacity:1.0000000;"
         offset="0.0000000"
         id="stop6216" />
      <stop
         style="stop-color:#ff433e;stop-opacity:1.0000000;"
         offset="1.0000000"
         id="stop6218" />
    </linearGradient>
    <linearGradient
       x1="2.0000000"
       y1="63.099518"
       x2="109.00000"
       y2="128.69501"
       id="linearGradient4853"
       xlink:href="#linearGradient2060"
       gradientUnits="userSpaceOnUse"
       gradientTransform="translate(0.000000,-1.000000)" />
    <linearGradient
       id="linearGradient2060">
      <stop
         style="stop-color:#ebf0d0;stop-opacity:1.0000000;"
         offset="0.0000000"
         id="stop2062" />
      <stop
         style="stop-color:#ffffeb;stop-opacity:1.0000000;"
         offset="1.0000000"
         id="stop2064" />
    </linearGradient>
  </defs>
  <sodipodi:namedview
     id="base"
     pagecolor="#ffffff"
     bordercolor="#666666"
     borderopacity="1.0"
     inkscape:pageopacity="0.0"
     inkscape:pageshadow="2"
     inkscape:zoom="0.35"
     inkscape:cx="375"
     inkscape:cy="520"
     inkscape:document-units="px"
     inkscape:current-layer="layer1"
     showgrid="false"
     inkscape:window-width="515"
     inkscape:window-height="459"
     inkscape:window-x="178"
     inkscape:window-y="256"
     inkscape:window-maximized="0" />
  <metadata
     id="metadata22742">
    <rdf:RDF>
      <cc:Work
         rdf:about="">
        <dc:format>image/svg+xml</dc:format>
        <dc:type
           rdf:resource="http://purl.org/dc/dcmitype/StillImage" />
        <dc:title></dc:title>
      </cc:Work>
    </rdf:RDF>
  </metadata>
  <g
     inkscape:label="Layer 1"
     inkscape:groupmode="layer"
     id="layer1">
    <g
       id="g23153"
       transform="translate(304.5,436.86218)">
      <g
         id="layer1-5"
         inkscape:label="Layer 1">
        <g
           id="g1344">
          <g
             id="g5630">
            <path
               id="rect2070"
               d="m 21,5 103,0 c 8.864,0 16,7.136 16,16 l 0,153 c 0,8.864 -7.136,16 -16,16 L 21,190 C 12.136,190 5,182.864 5,174 L 5,21 C 5,12.136 12.136,5 21,5 z"
               style="fill:#000000;fill-opacity:0.49803922;stroke:none"
               inkscape:connector-curvature="0" />
            <path
               id="rect1300"
               d="m 17,1 103,0 c 8.864,0 16,7.136 16,16 l 0,153 c 0,8.864 -7.136,16 -16,16 L 17,186 C 8.136,186 1,178.864 1,170 L 1,17 C 1,8.136 8.136,1 17,1 z"
               style="fill:#ffffff;fill-opacity:1;stroke:none"
               inkscape:connector-curvature="0" />
            <path
               id="path5624"
               d="m 19,3 103,0 c 8.864,0 16,7.136 16,16 l 0,153 c 0,8.864 -7.136,16 -16,16 L 19,188 C 10.136,188 3,180.864 3,172 L 3,19 C 3,10.136 10.136,3 19,3 z"
               style="fill:#c7891f;fill-opacity:1;stroke:none"
               inkscape:connector-curvature="0" />
            <path
               id="rect1306"
               d="m 18,1.9999995 103,0 c 8.864,0 16,7.136 16,16.0000005 l 0,153 c 0,8.864 -7.136,16 -16,16 L 18,187 C 9.136,187 2,179.864 2,171 L 2,18 C 2,9.1359995 9.136,1.9999995 18,1.9999995 z"
               style="fill:url(#linearGradient39565);fill-opacity:1;stroke:none"
               inkscape:connector-curvature="0" />
          </g>
          <path
             style="fill:#9f0000;fill-opacity:1;fill-rule:evenodd;stroke:none"
             d="m 103.53125,21 c -0.49728,0.0019 -0.9726,0.09931 -1.4375,0.28125 -0.9298,0.363884 -1.73845,1.111398 -2.03125,2.1875 -0.175565,0.645257 -0.122759,1.380922 0.1875,2 0.31026,0.61908 0.93159,1.119341 1.75,1.125 0.47552,0.0033 0.84996,-0.196201 1.15625,-0.53125 0.15315,-0.167525 0.31341,-0.415879 0.3125,-0.71875 -9.1e-4,-0.302872 -0.20998,-0.582731 -0.46875,-0.75 l -0.53125,0.8125 c 0.0701,0.04531 1.7e-4,-0.005 0,-0.0625 -1.8e-4,-0.05754 0.0172,-0.02179 -0.0312,0.03125 -0.097,0.106059 -0.45498,0.218627 -0.4375,0.21875 -0.42286,-0.0029 -0.65496,-0.21705 -0.84375,-0.59375 -0.18879,-0.3767 -0.22731,-0.905245 -0.125,-1.28125 0.20426,-0.750696 0.71786,-1.230594 1.40625,-1.5 0.68839,-0.269406 1.55215,-0.297696 2.25,-0.03125 2.11599,0.807899 2.82469,3.429281 1.9375,5.4375 -0.77925,1.763849 -2.58067,2.829585 -4.5,2.90625 l -62.78125,0.375 0,1 62.5625,-0.375 0,0.0625 c 0.0781,3.5e-4 0.14087,-0.05998 0.21875,-0.0625 l 0.34375,0 0,-0.09375 c 2.16345,-0.194223 4.19059,-1.361912 5.09375,-3.40625 C 108.66337,25.539367 107.7059,22.283134 105,21.25 104.5275,21.069599 104.02852,20.998062 103.53125,21 z m 11.40625,3.03125 c -0.67184,0.02277 -1.34578,0.162282 -1.96875,0.4375 -2.04434,0.90316 -3.21203,2.9303 -3.40625,5.09375 l -0.0937,0 0,0.34375 c -0.003,0.07788 -0.0628,0.14066 -0.0625,0.21875 l 0.0625,0 0.25,69.09375 1,0 -0.25,-69.3125 c 0.0767,-1.91933 1.1424,-3.72075 2.90625,-4.5 2.00822,-0.88719 4.6296,-0.17849 5.4375,1.9375 0.26645,0.69785 0.23816,1.56161 -0.0312,2.25 -0.2694,0.68839 -0.7493,1.20199 -1.5,1.40625 -0.376,0.10231 -0.90455,0.06379 -1.28125,-0.125 -0.3767,-0.18879 -0.59082,-0.42089 -0.59375,-0.84375 1.2e-4,0.01748 0.11269,-0.34055 0.21875,-0.4375 0.053,-0.04848 0.0888,-0.03107 0.0312,-0.03125 -0.0575,-1.7e-4 -0.10781,-0.07009 -0.0625,0 l 0.8125,-0.53125 c -0.16727,-0.25877 -0.44713,-0.46784 -0.75,-0.46875 -0.30287,-9.1e-4 -0.55122,0.15935 -0.71875,0.3125 -0.33505,0.30629 -0.53454,0.68073 -0.53125,1.15625 0.006,0.81841 0.50592,1.43974 1.125,1.75 0.61908,0.31026 1.35474,0.36307 2,0.1875 1.0761,-0.2928 1.82362,-1.10145 2.1875,-2.03125 0.18194,-0.4649 0.27931,-0.94022 0.28125,-1.4375 0.002,-0.49727 -0.0696,-0.99625 -0.25,-1.46875 -0.77485,-2.029425 -2.79699,-3.068302 -4.8125,-3 z M 29.28125,90 l 0.25,69.3125 c -0.07667,1.91933 -1.1424,3.72074 -2.90625,4.5 -2.00822,0.88719 -4.6296,0.17848 -5.4375,-1.9375 -0.26645,-0.69785 -0.23816,-1.56162 0.03125,-2.25 0.2694,-0.68839 0.7493,-1.202 1.5,-1.40625 0.376,-0.10231 0.90455,-0.0638 1.28125,0.125 0.3767,0.18879 0.59082,0.42088 0.59375,0.84375 -1.2e-4,-0.0175 -0.11269,0.34054 -0.21875,0.4375 -0.05304,0.0485 -0.08879,0.0311 -0.03125,0.0312 0.05754,1.7e-4 0.10781,0.0701 0.0625,0 l -0.8125,0.53125 c 0.16727,0.25877 0.44713,0.46783 0.75,0.46875 0.30287,9.1e-4 0.55122,-0.15936 0.71875,-0.3125 0.33505,-0.30629 0.53454,-0.68074 0.53125,-1.15625 -0.0057,-0.81841 -0.50592,-1.43975 -1.125,-1.75 -0.61908,-0.31026 -1.35474,-0.36308 -2,-0.1875 -1.0761,0.2928 -1.82362,1.10144 -2.1875,2.03125 -0.18194,0.4649 -0.27931,0.94021 -0.28125,1.4375 -0.0019,0.49727 0.0696,0.99624 0.25,1.46875 1.03313,2.7059 4.28937,3.66336 6.78125,2.5625 2.04434,-0.90316 3.21203,-2.93031 3.40625,-5.09375 l 0.09375,0 0,-0.34375 c 0.0025,-0.0779 0.06285,-0.14067 0.0625,-0.21875 l -0.0625,0 -0.25,-69.09375 -1,0 z m 71.375,67.3125 -62.5625,0.375 0,-0.0625 c -0.07809,-3.5e-4 -0.14087,0.06 -0.21875,0.0625 l -0.34375,0 0,0.0937 c -2.163451,0.19422 -4.19059,1.36191 -5.09375,3.40625 -1.100871,2.49189 -0.1434,5.74812 2.5625,6.78125 0.472499,0.1804 0.97148,0.25194 1.46875,0.25 0.497279,-0.002 0.9726,-0.0993 1.4375,-0.28125 0.929799,-0.36388 1.73845,-1.1114 2.03125,-2.1875 0.175565,-0.64526 0.122759,-1.38092 -0.1875,-2 -0.310261,-0.61908 -0.93159,-1.11934 -1.75,-1.125 -0.475521,-0.003 -0.84996,0.1962 -1.15625,0.53125 -0.153151,0.16753 -0.31341,0.41588 -0.3125,0.71875 9.09e-4,0.30287 0.20998,0.58273 0.46875,0.75 l 0.53125,-0.8125 c -0.07009,-0.0453 -1.7e-4,0.005 0,0.0625 1.79e-4,0.0575 -0.01723,0.0218 0.03125,-0.0312 0.09695,-0.10606 0.45498,-0.21863 0.4375,-0.21875 0.422859,0.003 0.65496,0.21705 0.84375,0.59375 0.188789,0.3767 0.22731,0.90525 0.125,1.28125 -0.204261,0.7507 -0.71786,1.2306 -1.40625,1.5 -0.688391,0.26941 -1.55215,0.2977 -2.25,0.0312 -2.115991,-0.8079 -2.82469,-3.42928 -1.9375,-5.4375 0.779249,-1.76385 2.58067,-2.82958 4.5,-2.90625 l 62.78125,-0.375 0,-1 z"
             id="path2869"
             inkscape:connector-curvature="0" />
        </g>
        <g
           transform="translate(152.0373,99.56709)"
           id="g5202">
          <g
             transform="translate(351.5,184.5)"
             id="g5581" />
        </g>
      </g>
      <path
         d="m 22.038657,42.78256 -0.498402,0 c -4.086903,-10e-7 -7.265594,-1.366374 -9.536082,-4.099121 -2.2704992,-2.732741 -3.4057457,-6.537151 -3.405744,-11.41324 -1.7e-6,-4.862664 1.1297072,-8.67377 3.38913,-11.433333 2.270489,-2.75951 5.393802,-4.139278 9.369948,-4.139309 4.020422,3.1e-5 7.149272,1.366403 9.386563,4.099121 2.248318,2.732772 3.37249,6.557275 3.372517,11.473521 -2.7e-5,3.375759 -0.598108,6.282648 -1.794246,8.72068 -1.185112,2.438043 -2.896289,4.273268 -5.133535,5.505682 l 5.000628,6.751494 -6.097111,0 -4.053666,-5.465495 m -0.68115,-25.478852 c -1.949316,2.5e-5 -3.461131,0.870753 -4.535453,2.612185 -1.074341,1.741478 -1.611507,4.192911 -1.611498,7.354306 -9e-6,3.215009 0.526081,5.679838 1.578271,7.394493 1.052171,1.701275 2.575062,2.551909 4.56868,2.551904 1.960363,5e-6 3.477718,-0.870722 4.552068,-2.612185 1.074312,-1.741447 1.611478,-4.186182 1.611499,-7.334212 -2.1e-5,-3.161395 -0.537187,-5.612828 -1.611499,-7.354306 -1.07435,-1.741432 -2.591705,-2.61216 -4.552068,-2.612185"
         style="font-size:37.41876602px;font-style:normal;font-variant:normal;font-weight:bold;font-stretch:normal;writing-mode:lr-tb;text-anchor:start;fill:#000000;fill-opacity:1;stroke:none;font-family:Bitstream Vera Sans"
         id="text1481"
         inkscape:connector-curvature="0" />
      <path
         d="m 116.6513,146.0875 0.4984,0 c 4.08691,0 7.26559,1.36637 9.53608,4.09912 2.2705,2.73273 3.40575,6.53714 3.40574,11.41323 1e-5,4.86266 -1.1297,8.67378 -3.38913,11.43334 -2.27049,2.7595 -5.3938,4.13927 -9.36994,4.1393 -4.02043,-3e-5 -7.14928,-1.3664 -9.38656,-4.09912 -2.24832,-2.73277 -3.3725,-6.55728 -3.37252,-11.47352 2e-5,-3.37575 0.59811,-6.28265 1.79425,-8.72068 1.1851,-2.43805 2.89628,-4.27326 5.13353,-5.50568 l -5.00063,-6.75149 6.09712,0 4.05366,5.4655 m 0.68115,25.47884 c 1.94931,-2e-5 3.46113,-0.87075 4.53545,-2.61218 1.07434,-1.74149 1.6115,-4.19291 1.6115,-7.35431 0,-3.215 -0.52608,-5.67983 -1.57827,-7.39449 -1.05217,-1.70128 -2.57506,-2.55191 -4.56868,-2.55191 -1.96037,0 -3.47772,0.87072 -4.55207,2.6122 -1.07431,1.74143 -1.61148,4.18617 -1.6115,7.3342 2e-5,3.1614 0.53719,5.61282 1.6115,7.35431 1.07435,1.74143 2.5917,2.61216 4.55207,2.61218"
         style="font-size:37.41876602px;font-style:normal;font-variant:normal;font-weight:bold;font-stretch:normal;writing-mode:lr-tb;text-anchor:start;fill:#000000;fill-opacity:1;stroke:none;font-family:Bitstream Vera Sans"
         id="text4064"
         inkscape:connector-curvature="0" />
      <path
         sodipodi:nodetypes="cccccccccc"
         d="M 20.644513,48.665 C 15.72019,56.489664 0.60984991,69.814129 10.182209,73.927933 c 5.81053,1.893741 8.575682,-1.982842 9.746833,-4.54936 l 0.234581,0 L 16.304766,82.325 25.2423,82.286882 c 0,0 -3.8501,-12.444862 -3.858856,-12.921021 l 0.09383,0 c 0.945948,2.097186 4.53543,6.438666 8.483981,4.785273 C 41.507111,69.516254 24.505558,56.327259 20.644513,48.665 z"
         style="fill:#000000;fill-opacity:1;fill-rule:evenodd;stroke:none"
         id="path1561"
         inkscape:connector-curvature="0" />
      <path
         sodipodi:nodetypes="cccccccccc"
         d="m 118.03526,140 c 4.92432,-7.82466 20.03466,-21.14913 10.4623,-25.26293 -5.81053,-1.89374 -8.57568,1.98284 -9.74683,4.54936 l -0.23458,0 3.85885,-12.94643 -8.93753,0.0381 c 0,0 3.8501,12.44486 3.85885,12.92102 l -0.0938,0 c -0.94594,-2.09719 -4.53543,-6.43867 -8.48398,-4.78527 -11.545851,4.63488 5.4557,17.82387 9.31675,25.48613 z"
         style="fill:#000000;fill-opacity:1;fill-rule:evenodd;stroke:none"
         id="path5553"
         inkscape:connector-curvature="0" />
      <g
         id="g4493"
         transform="translate(0,-7.206117e-6)">
        <path
           sodipodi:nodetypes="ccccccccccccccccccc"
           id="path1780"
           d="m 55.83765,46.05699 c 0.24877,8.38925 -8.77437,-11.84219 -4.94988,1.01782 -0.17772,4.94541 5.74504,12.64642 1.64348,15.6552 -5.48932,3.20138 -9.41485,8.6823 -11.28125,14.71875 6.72368,-0.95439 2.78314,4.80719 3.48868,8.90285 0.20578,7.74942 5.80181,16.13283 12.77504,19.89745 -8.46614,1.63233 -11.53995,8.88467 -10.66921,15.8933 -5.69383,3.82426 -0.0089,8.98375 -0.85061,12.52515 1.62018,3.9894 8.93994,3.76337 13.0686,4.9375 10.521423,0.87167 21.440436,0.54476 31.34375,-3.5 -0.82413,-9.42441 4.23722,-22.26587 -8.28887,-28.64405 6.22397,-0.11589 14.09816,-1.57051 20.13262,-2.8872 C 95.38555,101.8656 83.32453,98.99579 85.49067,89.26622 87.02506,77.80117 83.21798,62.44349 70.0625,60.29251 c 1.028285,-6.32217 2.548785,-12.58985 2.5,-19.03125 -5.677601,14.51139 -4.546637,-8.82038 -7.218845,1.21788 -2.053865,7.8029 -3.522343,-10.3765 -5.181374,2.97753 C 58.18891,43.27286 56.46066,31.41842 56.31044,43.18119 l -0.47279,2.8758 z"
           style="fill:#000000;fill-opacity:1;stroke:none"
           inkscape:connector-curvature="0" />
        <path
           id="path1782"
           d="m 80.410676,85.18418 c 0,11.41333 -7.563868,20.67633 -16.883635,20.67633 -9.319767,0 -16.883635,-9.263 -16.883635,-20.67633 0,-11.41333 7.563868,-20.67633 16.883635,-20.67633 9.319767,0 16.883635,9.263 16.883635,20.67633 z"
           style="fill:url(#linearGradient1861);fill-opacity:1;stroke:none"
           inkscape:connector-curvature="0" />
        <path
           id="path1784"
           d="m 60.48695,107.0124 c -7.049057,0 -12.71875,5.6697 -12.71875,12.71875 l 0,3.1875 c -1.177686,1.83346 -2.332813,3.55351 -2.09375,4.96875 0.176406,1.04431 1.092862,1.89231 2.09375,2.625 l 0,4.125 c 9.379895,4.64912 29.532273,4.89382 40.625,0 l 0,-14.90625 c 0,-7.04905 -5.66969,-12.71875 -12.71875,-12.71875 l -15.1875,0 z"
           style="fill:url(#linearGradient1863);fill-opacity:1;stroke:none"
           inkscape:connector-curvature="0" />
        <path
           sodipodi:nodetypes="ccccccc"
           id="path1786"
           d="m 43.988347,75.88283 c 0,0 3.896408,-14.13066 20.611772,-14.41037 16.434291,-0.2797 20.820071,13.88234 18.966701,29.83225 -1.71283,8.50141 11.9007,12.7853 11.9007,12.7853 -4.85289,1.57731 -16.451578,3.01407 -23.693606,0.51577 6.287822,-4.72189 1.046535,-27.34759 -2.379136,-30.28387 -4.268891,3.38791 -21.033385,3.09546 -25.406431,1.56092 z"
           style="fill:#000000;fill-opacity:1;fill-rule:evenodd;stroke:none"
           inkscape:connector-curvature="0" />
        <g
           transform="matrix(0.144857,0,0,0.144857,12.63155,49.8265)"
           id="g1788">
          <path
             id="path1790"
             d="m 353,245.86218 c 0,11.868 -9.408,21.5 -21,21.5 -11.592,0 -21,-9.632 -21,-21.5 0,-11.868 9.408,-21.5 21,-21.5 11.592,0 21,9.632 21,21.5 z"
             style="fill:#ffffff;fill-opacity:1;stroke:none"
             transform="translate(-4,-6)"
             inkscape:connector-curvature="0" />
          <path
             id="path1792"
             d="m 353,245.86218 c 0,11.868 -9.408,21.5 -21,21.5 -11.592,0 -21,-9.632 -21,-21.5 0,-11.868 9.408,-21.5 21,-21.5 11.592,0 21,9.632 21,21.5 z"
             style="fill:#1828ce;fill-opacity:1;stroke:none"
             transform="matrix(0.571429,0,0,0.83721,129.2857,34.52408)"
             inkscape:connector-curvature="0" />
          <path
             id="path1794"
             d="m 353,245.86218 c 0,11.868 -9.408,21.5 -21,21.5 -11.592,0 -21,-9.632 -21,-21.5 0,-11.868 9.408,-21.5 21,-21.5 11.592,0 21,9.632 21,21.5 z"
             style="fill:#000000;fill-opacity:1;stroke:none"
             transform="matrix(0.357143,0,0,0.674419,195.9286,76.04816)"
             inkscape:connector-curvature="0" />
        </g>
        <g
           transform="matrix(0.119803,0,0,0.09705316,-17.6531,42.1785)"
           id="g1796">
          <path
             style="fill:url(#linearGradient1865);fill-opacity:1;fill-rule:evenodd;stroke:none"
             d="m 618,99.362183 10,-85 38,114.999997 c 0,0 34,-122.9999974 34,-118.999997 0,4 23,90.999997 23,90.999997 l -18,70 -77,0 -10,-71.999997 z"
             id="path1798"
             sodipodi:nodetypes="cccccccc"
             inkscape:connector-curvature="0" />
          <path
             style="fill:url(#linearGradient1867);fill-opacity:1;fill-rule:evenodd;stroke:none"
             d="m 589,51.362183 36,178.999997 c 27,10.66667 60,9.33333 84,1 L 734,53.362183 690,142.36218 667,23.362183 644,141.36218 589,51.362183 z"
             id="path1800"
             sodipodi:nodetypes="cccccccc"
             inkscape:connector-curvature="0" />
        </g>
        <g
           transform="matrix(0.144857,0,0,0.144857,2.54305,49.3221)"
           id="g1802">
          <path
             id="path1804"
             d="m 353,245.86218 c 0,11.868 -9.408,21.5 -21,21.5 -11.592,0 -21,-9.632 -21,-21.5 0,-11.868 9.408,-21.5 21,-21.5 11.592,0 21,9.632 21,21.5 z"
             style="fill:#ffffff;fill-opacity:1;stroke:none"
             transform="translate(-4,-6)"
             inkscape:connector-curvature="0" />
          <path
             id="path1806"
             d="m 353,245.86218 c 0,11.868 -9.408,21.5 -21,21.5 -11.592,0 -21,-9.632 -21,-21.5 0,-11.868 9.408,-21.5 21,-21.5 11.592,0 21,9.632 21,21.5 z"
             style="fill:#1828ce;fill-opacity:1;stroke:none"
             transform="matrix(0.571429,0,0,0.83721,129.2857,34.52408)"
             inkscape:connector-curvature="0" />
          <path
             id="path1808"
             d="m 353,245.86218 c 0,11.868 -9.408,21.5 -21,21.5 -11.592,0 -21,-9.632 -21,-21.5 0,-11.868 9.408,-21.5 21,-21.5 11.592,0 21,9.632 21,21.5 z"
             style="fill:#000000;fill-opacity:1;stroke:none"
             transform="matrix(0.357143,0,0,0.674419,195.9286,76.04816)"
             inkscape:connector-curvature="0" />
        </g>
        <path
           sodipodi:nodetypes="ccc"
           id="path1810"
           d="m 51.976503,97.22286 c 3.530959,4.4137 6.935812,2.90043 11.727824,0 -4.287588,-0.25221 -7.188017,-1.51327 -11.727824,0 z"
           style="fill:url(#linearGradient1869);fill-opacity:1;fill-rule:evenodd;stroke:none"
           inkscape:connector-curvature="0" />
        <path
           sodipodi:nodetypes="ccccc"
           id="path1812"
           d="m 74.599281,122.87767 1.26359,0.12326 1.371356,14.51276 -3.465186,0.2504 0.83024,-14.88642 z"
           style="fill:#700000;fill-opacity:1;stroke:none"
           inkscape:connector-curvature="0" />
        <path
           style="fill:#700000;fill-opacity:1;fill-rule:evenodd;stroke:none"
           d="m 57.96875,128.32376 -0.8125,0.5625 c 2.043515,2.96102 3.74141,5.67398 5.887196,6.05716 2.145786,0.38318 4.67292,-1.55035 6.706554,-2.46341 l -0.40625,-0.90625 c -1.956162,0.87828 -3.843491,1.42304 -5.6875,1.09375 -1.844009,-0.32929 -3.741221,-1.52363 -5.6875,-4.34375 z"
           id="path1814"
           sodipodi:nodetypes="ccccccc"
           inkscape:connector-curvature="0" />
        <path
           style="fill:#000000;fill-opacity:1;fill-rule:evenodd;stroke:none"
           d="m 53.6381,86.77622 c -0.7919,1.28683 -1.73445,2.49048 -1.57019,3.46292 0.16427,0.97244 1.44193,1.67441 2.23189,2.23502 l 0.33085,-0.47789 c -0.69469,-0.49301 -1.15158,-1.1304 -1.28664,-1.92995 -0.13505,-0.79956 0.04973,-1.79248 0.79036,-2.99602 L 53.6381,86.77622 z"
           id="path1816"
           sodipodi:nodetypes="ccccccc"
           inkscape:connector-curvature="0" />
        <path
           sodipodi:nodetypes="cccc"
           id="path1818"
           d="m 58.473719,107.54847 c 0,0 -6.31784,11.77416 -4.881968,20.38939 5.456318,-9.76393 12.635682,-19.24069 16.656127,-20.96374 -1.435873,-0.57435 -10.338286,-0.28718 -11.774159,0.57435 z"
           style="fill:url(#linearGradient1871);fill-opacity:1;fill-rule:evenodd;stroke:none"
           inkscape:connector-curvature="0" />
        <path
           sodipodi:nodetypes="ccccc"
           id="path1820"
           d="m 45.585771,127.81045 c 0.27928,1.65332 2.45152,2.84678 3.79459,3.79992 l 0.32637,-0.26906 c -1.18109,-0.83819 -1.763917,-0.95624 -1.993537,-2.31562 -0.22962,-1.35938 -2.406703,-2.86856 -2.127423,-1.21524 z"
           style="fill:#700000;fill-opacity:1;fill-rule:evenodd;stroke:none"
           inkscape:connector-curvature="0" />
        <path
           id="path1822"
           d="m 66.21875,43.198524 c 0,-0.24209 -1.37005,3.72712 -2.5625,7.1875 l -1.40625,-5.9375 -1.59375,6.65625 -3.0625,-7.53125 -1.21875,8.1875 -3.46875,-4.59375 3.90625,15.78125 C 46.71688,66.544084 44,75.886024 44,75.886024 c 0.88934,0.31208 2.51373,0.52992 4.21875,0.71875 -0.98259,2.62162 -1.5625,5.52192 -1.5625,8.59375 0,11.41334 7.55523,20.656266 16.875,20.656266 3.86397,0 7.37235,-1.66616 10.21875,-4.34375 -0.46693,1.30414 -1.06631,2.41606 -1.96875,3.09375 7.24203,2.4983 18.83462,1.0773 23.6875,-0.5 0,0 -13.61908,-4.311096 -11.90625,-12.812516 1.72205,-14.81975 -2.07081,-27.91733 -15.78125,-29.5 l 2.5,-14.4375 -1.84375,3 c -0.68391,-2.10691 -2.21875,-6.84118 -2.21875,-7.15625 z M 60.5,107.01104 c -7.04905,0 -12.71875,5.6697 -12.71875,12.71875 l 0,3.1875 c -1.17769,1.83346 -2.33281,3.55351 -2.09375,4.96875 0.17641,1.04431 1.09286,1.89231 2.09375,2.625 l 0,4.15625 c 6.01214,2.97991 16.36065,3.9261 26,3.09375 1.14861,-0.0992 2.32032,-0.0936 3.4375,-0.25 4.13462,-0.57876 8.05199,-1.46045 11.1875,-2.84375 l 0,-14.9375 c 0,-7.04905 -5.70094,-12.71875 -12.75,-12.71875 l -15.15625,0 z"
           style="fill:url(#linearGradient1873);fill-opacity:1;stroke:none"
           inkscape:connector-curvature="0" />
      </g>
    </g>
  </g>
</svg>
